<?xml version="1.0" standalone="no"?>
<svg xmlns:xlink="http://www.w3.org/1999/xlink" id="wave" style="transform:rotate(0deg); transition: 0.3s" viewBox="0 0 1440 490" version="1.1" xmlns="http://www.w3.org/2000/svg"><defs><linearGradient id="sw-gradient-0" x1="0" x2="0" y1="1" y2="0"><stop stop-color="rgba(166, 174, 221, 1)" offset="0%"/><stop stop-color="rgba(229.722, 37.271, 233.252, 1)" offset="100%"/></linearGradient></defs><path style="transform:translate(0, 0px); opacity:1" fill="url(#sw-gradient-0)" d="M0,441L10,432.8C20,425,40,408,60,392C80,376,100,359,120,302.2C140,245,160,147,180,122.5C200,98,220,147,240,138.8C260,131,280,65,300,65.3C320,65,340,131,360,147C380,163,400,131,420,122.5C440,114,460,131,480,147C500,163,520,180,540,196C560,212,580,229,600,245C620,261,640,278,660,261.3C680,245,700,196,720,204.2C740,212,760,278,780,302.2C800,327,820,310,840,285.8C860,261,880,229,900,253.2C920,278,940,359,960,334.8C980,310,1000,180,1020,171.5C1040,163,1060,278,1080,277.7C1100,278,1120,163,1140,155.2C1160,147,1180,245,1200,294C1220,343,1240,343,1260,285.8C1280,229,1300,114,1320,65.3C1340,16,1360,33,1380,57.2C1400,82,1420,114,1430,130.7L1440,147L1440,490L1430,490C1420,490,1400,490,1380,490C1360,490,1340,490,1320,490C1300,490,1280,490,1260,490C1240,490,1220,490,1200,490C1180,490,1160,490,1140,490C1120,490,1100,490,1080,490C1060,490,1040,490,1020,490C1000,490,980,490,960,490C940,490,920,490,900,490C880,490,860,490,840,490C820,490,800,490,780,490C760,490,740,490,720,490C700,490,680,490,660,490C640,490,620,490,600,490C580,490,560,490,540,490C520,490,500,490,480,490C460,490,440,490,420,490C400,490,380,490,360,490C340,490,320,490,300,490C280,490,260,490,240,490C220,490,200,490,180,490C160,490,140,490,120,490C100,490,80,490,60,490C40,490,20,490,10,490L0,490Z"/><defs><linearGradient id="sw-gradient-1" x1="0" x2="0" y1="1" y2="0"><stop stop-color="rgba(166, 174, 221, 1)" offset="0%"/><stop stop-color="rgba(141.992, 148.651, 187.432, 1)" offset="100%"/></linearGradient></defs><path style="transform:translate(0, 50px); opacity:0.9" fill="url(#sw-gradient-1)" d="M0,147L10,147C20,147,40,147,60,179.7C80,212,100,278,120,310.3C140,343,160,343,180,343C200,343,220,343,240,343C260,343,280,343,300,294C320,245,340,147,360,89.8C380,33,400,16,420,57.2C440,98,460,196,480,204.2C500,212,520,131,540,89.8C560,49,580,49,600,89.8C620,131,640,212,660,204.2C680,196,700,98,720,49C740,0,760,0,780,40.8C800,82,820,163,840,204.2C860,245,880,245,900,261.3C920,278,940,310,960,269.5C980,229,1000,114,1020,122.5C1040,131,1060,261,1080,285.8C1100,310,1120,229,1140,236.8C1160,245,1180,343,1200,392C1220,441,1240,441,1260,408.3C1280,376,1300,310,1320,261.3C1340,212,1360,180,1380,196C1400,212,1420,278,1430,310.3L1440,343L1440,490L1430,490C1420,490,1400,490,1380,490C1360,490,1340,490,1320,490C1300,490,1280,490,1260,490C1240,490,1220,490,1200,490C1180,490,1160,490,1140,490C1120,490,1100,490,1080,490C1060,490,1040,490,1020,490C1000,490,980,490,960,490C940,490,920,490,900,490C880,490,860,490,840,490C820,490,800,490,780,490C760,490,740,490,720,490C700,490,680,490,660,490C640,490,620,490,600,490C580,490,560,490,540,490C520,490,500,490,480,490C460,490,440,490,420,490C400,490,380,490,360,490C340,490,320,490,300,490C280,490,260,490,240,490C220,490,200,490,180,490C160,490,140,490,120,490C100,490,80,490,60,490C40,490,20,490,10,490L0,490Z"/><defs><linearGradient id="sw-gradient-2" x1="0" x2="0" y1="1" y2="0"><stop stop-color="rgba(166, 174, 221, 1)" offset="0%"/><stop stop-color="rgba(200.177, 211.338, 98.502, 1)" offset="100%"/></linearGradient></defs><path style="transform:translate(0, 100px); opacity:0.8" fill="url(#sw-gradient-2)" d="M0,98L10,122.5C20,147,40,196,60,212.3C80,229,100,212,120,171.5C140,131,160,65,180,98C200,131,220,261,240,261.3C260,261,280,131,300,114.3C320,98,340,196,360,269.5C380,343,400,392,420,375.7C440,359,460,278,480,253.2C500,229,520,261,540,269.5C560,278,580,261,600,236.8C620,212,640,180,660,212.3C680,245,700,343,720,343C740,343,760,245,780,187.8C800,131,820,114,840,98C860,82,880,65,900,122.5C920,180,940,310,960,326.7C980,343,1000,245,1020,228.7C1040,212,1060,278,1080,285.8C1100,294,1120,245,1140,245C1160,245,1180,294,1200,285.8C1220,278,1240,212,1260,212.3C1280,212,1300,278,1320,253.2C1340,229,1360,114,1380,65.3C1400,16,1420,33,1430,40.8L1440,49L1440,490L1430,490C1420,490,1400,490,1380,490C1360,490,1340,490,1320,490C1300,490,1280,490,1260,490C1240,490,1220,490,1200,490C1180,490,1160,490,1140,490C1120,490,1100,490,1080,490C1060,490,1040,490,1020,490C1000,490,980,490,960,490C940,490,920,490,900,490C880,490,860,490,840,490C820,490,800,490,780,490C760,490,740,490,720,490C700,490,680,490,660,490C640,490,620,490,600,490C580,490,560,490,540,490C520,490,500,490,480,490C460,490,440,490,420,490C400,490,380,490,360,490C340,490,320,490,300,490C280,490,260,490,240,490C220,490,200,490,180,490C160,490,140,490,120,490C100,490,80,490,60,490C40,490,20,490,10,490L0,490Z"/><defs><linearGradient id="sw-gradient-3" x1="0" x2="0" y1="1" y2="0"><stop stop-color="rgba(166, 174, 221, 1)" offset="0%"/><stop stop-color="rgba(0, 34, 232, 1)" offset="100%"/></linearGradient></defs><path style="transform:translate(0, 150px); opacity:0.7" fill="url(#sw-gradient-3)" d="M0,294L10,277.7C20,261,40,229,60,253.2C80,278,100,359,120,359.3C140,359,160,278,180,277.7C200,278,220,359,240,359.3C260,359,280,278,300,204.2C320,131,340,65,360,106.2C380,147,400,294,420,310.3C440,327,460,212,480,212.3C500,212,520,327,540,375.7C560,425,580,408,600,375.7C620,343,640,294,660,228.7C680,163,700,82,720,73.5C740,65,760,131,780,147C800,163,820,131,840,130.7C860,131,880,163,900,204.2C920,245,940,294,960,318.5C980,343,1000,343,1020,326.7C1040,310,1060,278,1080,236.8C1100,196,1120,147,1140,122.5C1160,98,1180,98,1200,114.3C1220,131,1240,163,1260,179.7C1280,196,1300,196,1320,236.8C1340,278,1360,359,1380,343C1400,327,1420,212,1430,155.2L1440,98L1440,490L1430,490C1420,490,1400,490,1380,490C1360,490,1340,490,1320,490C1300,490,1280,490,1260,490C1240,490,1220,490,1200,490C1180,490,1160,490,1140,490C1120,490,1100,490,1080,490C1060,490,1040,490,1020,490C1000,490,980,490,960,490C940,490,920,490,900,490C880,490,860,490,840,490C820,490,800,490,780,490C760,490,740,490,720,490C700,490,680,490,660,490C640,490,620,490,600,490C580,490,560,490,540,490C520,490,500,490,480,490C460,490,440,490,420,490C400,490,380,490,360,490C340,490,320,490,300,490C280,490,260,490,240,490C220,490,200,490,180,490C160,490,140,490,120,490C100,490,80,490,60,490C40,490,20,490,10,490L0,490Z"/></svg>